<?xml version="1.0" standalone="no"?><!DOCTYPE svg PUBLIC "-//W3C//DTD SVG 1.1//EN" "http://www.w3.org/Graphics/SVG/1.1/DTD/svg11.dtd"><svg t="1563153700101" class="icon" viewBox="0 0 1024 1024" version="1.1" xmlns="http://www.w3.org/2000/svg" p-id="6307" xmlns:xlink="http://www.w3.org/1999/xlink" width="200" height="200"><defs><style type="text/css"></style></defs><path d="M251.74016 801.38752c-88.38144 0-160 35.88096-160 80 0 44.19072 71.61856 80 160 80 88.36096 0 159.97952-35.80928 159.97952-80 0.00512-44.12416-71.61856-80-159.97952-80z m-0.00512 119.89504c-54.26176 0-98.23744-15.03232-98.23744-39.89504 0-24.82176 43.97056-39.88992 98.23744-39.88992 54.25664 0 98.2272 15.06816 98.2272 39.88992 0 24.86272-43.97056 39.89504-98.2272 39.89504z" p-id="6308"></path><path d="M290.36032 877.98272s4.35712 17.05472-28.28288 22.81472c-29.63968 5.22752-34.95424-12.97408-34.95424-12.97408l-45.90592-295.12704 54.62016-44.93312 54.52288 330.21952zM889.82528 89.1136l-68.56192 408.27392-8.54016 5.69344c-3.24096 2.19136-80.36352 53.56032-171.30496 35.77344-34.00192-6.656-65.43872-17.27488-95.71328-27.68384-40.192-13.65504-78.08512-26.5472-113.60256-26.5472-124.9792 0-195.56352 62.5152-196.26496 63.14496l-54.62016 44.93312L109.03552 128.9728c0-9.84064 9.66656-21.36576 17.54624-29.38368 33.15712-33.73568 184.832-51.02592 299.8016-51.02592 71.56224 0 120.69376 36.60288 160.18432 65.96608 23.35744 17.3312 45.37344 33.6896 65.31072 37.73952 59.90912 11.96544 155.79136-24.3456 187.65824-39.424l50.28864-23.7312z m-71.56224 83.72736c-47.74912 16.79872-121.0368 36.21888-180.06016 24.3456-34.1248-6.84544-61.32736-27.04896-90.12736-48.42496-35.6352-26.50112-72.35584-53.84704-121.90208-53.84704-127.1808 0-232.46336 22.272-243.24608 31.81056-6.06208 5.38112-6.94784 9.61024-6.94784 11.27936l0.4352 4.59776L228.93056 483.2256c40.40704-21.48352 118.43072-44.96896 203.17184-44.96896 46.83776 0 91.97568 15.32416 135.5008 30.15168 28.27264 9.7024 57.52832 19.64032 87.10144 25.40544 48.57856 9.50272 94.86336-11.53024 113.23904-21.41696l50.31936-299.55584z" p-id="6309"></path></svg>