<?xml version="1.0" standalone="no"?><!DOCTYPE svg PUBLIC "-//W3C//DTD SVG 1.1//EN" "http://www.w3.org/Graphics/SVG/1.1/DTD/svg11.dtd"><svg t="1563246378947" class="icon" viewBox="0 0 1024 1024" version="1.1" xmlns="http://www.w3.org/2000/svg" p-id="795" xmlns:xlink="http://www.w3.org/1999/xlink" width="128" height="128"><defs><style type="text/css"></style></defs><path d="M455.344 499.2c25.6-236.8 294.4-268.8 294.4-268.8-44.8-76.8-115.2-128-198.4-153.6C551.344 25.6 519.344 0 461.744 0h-19.2c-64 0-96 32-102.4 83.2-134.4 51.2-230.4 185.6-230.4 339.2v198.4S-11.856 723.2 0.944 838.4h595.2c0-6.4-166.4-96-140.8-339.2zM448.944 1024c76.8 0 140.8-57.6 140.8-121.6H308.144c0 64 64 121.6 140.8 121.6z" p-id="796"></path><path d="M973.744 556.8c0-32 19.2-57.6 51.2-57.6-6.4-25.6-12.8-51.2-25.6-70.4-25.6 19.2-64 12.8-83.2-12.8-19.2-19.2-19.2-51.2 0-76.8-25.6-12.8-51.2-25.6-76.8-32v6.4c0 32-32 57.6-64 57.6s-51.2-25.6-57.6-57.6v-6.4c-25.6 6.4-51.2 19.2-76.8 32 19.2 25.6 19.2 64-6.4 83.2-12.8 12.8-25.6 19.2-38.4 19.2s-25.6-6.4-38.4-12.8c-12.8 19.2-19.2 44.8-25.6 70.4 32 0 57.6 25.6 57.6 64s-25.6 64-57.6 64c6.4 32 19.2 57.6 32 83.2 25.6-19.2 64-19.2 83.2 6.4 19.2 25.6 19.2 57.6 0 76.8 19.2 12.8 44.8 25.6 70.4 32 6.4-32 32-57.6 64-57.6 12.8 0 25.6 6.4 38.4 19.2 12.8 12.8 12.8 25.6 19.2 38.4 25.6-6.4 51.2-19.2 76.8-32-19.2-25.6-19.2-64 6.4-83.2 19.2-19.2 51.2-19.2 76.8 0 12.8-25.6 25.6-51.2 25.6-76.8-32-19.2-51.2-44.8-51.2-76.8z m-185.6 115.2c-57.6 0-108.8-51.2-108.8-108.8 0-57.6 51.2-108.8 108.8-108.8s108.8 51.2 108.8 108.8c0 64-51.2 108.8-108.8 108.8z" p-id="797"></path></svg>