<?xml version="1.0" standalone="no"?><!DOCTYPE svg PUBLIC "-//W3C//DTD SVG 1.1//EN" "http://www.w3.org/Graphics/SVG/1.1/DTD/svg11.dtd"><svg t="1563153555055" class="icon" viewBox="0 0 1024 1024" version="1.1" xmlns="http://www.w3.org/2000/svg" p-id="5221" xmlns:xlink="http://www.w3.org/1999/xlink" width="200" height="200"><defs><style type="text/css"></style></defs><path d="M193.325174 915.532931a34.764581 34.764581 0 0 1-35.51263-35.276404C157.812544 691.039563 312.934233 472.451844 511.836459 472.451844c168.114114 0 291.266562 149.255412 335.08647 287.920027a35.630743 35.630743 0 0 1-23.858818 44.016764 36.024453 36.024453 0 0 1-44.804183-22.835173c-36.69376-119.884655-139.727633-239.769311-266.423469-239.76931-157.483948 0-282.998654 184.531816-282.998654 337.291245 0 20.000461-16.575186 36.457534-35.512631 36.457534zM511.836459 540.563651c-187.09093 0-332.724211-186.854704-351.661656-366.662002h-36.73313C77.259505 173.94102 39.384615 136.341728 39.384615 90.474528V83.466492C39.384615 37.599293 77.259505 0 123.441673 0h776.789572C946.413413 0 984.288303 37.599293 984.288303 83.466492v7.047407c0 45.827829-37.874889 83.427121-84.057058 83.427121h-36.73313c-18.898074 179.807297-164.570726 366.662002-351.661656 366.662002zM123.441673 71.694567c-7.086778 0-12.992426 5.905648-12.992426 12.913684v7.086778c0 7.008036 5.905648 12.913684 12.992426 12.913683H193.325174c18.937445 0 35.51263 15.275943 35.512631 34.055904C231.200064 287.920028 357.8959 470.089584 511.836459 470.089584c153.940559 0 280.636395-182.169557 282.998654-332.566727 0-18.819332 16.575186-34.095275 35.512631-34.095274h69.883501c7.086778 0 12.992426-5.905648 12.992426-12.913684v-7.086778c0-7.047407-5.905648-12.913684-12.992426-12.913683H123.441673v1.181129zM900.231245 1023.645661H123.441673C77.259505 1023.645661 39.384615 986.046369 39.384615 940.179169v-7.047407c0-45.827829 37.874889-83.427121 84.057058-83.427121H193.325174c20.118574 0 35.51263 15.275943 35.512631 35.276404a34.764581 34.764581 0 0 1-35.512631 35.237033H123.441673c-7.086778 0-12.992426 5.905648-12.992426 12.913684v7.086778c0 7.047407 5.905648 12.913684 12.992426 12.913683h776.789572c7.086778 0 12.992426-5.905648 12.992426-12.913683v-7.086778c0-7.047407-5.905648-12.913684-12.992426-12.913684H830.347744a34.764581 34.764581 0 0 1-35.512631-35.237033c0-20.000461 15.354685-35.276404 35.512631-35.276404h69.883501c46.182168 0 84.057057 37.599293 84.057058 83.466492v7.047407C984.288303 986.046369 946.413413 1023.645661 900.231245 1023.645661z" p-id="5222"></path></svg>