<?xml version="1.0" standalone="no"?><!DOCTYPE svg PUBLIC "-//W3C//DTD SVG 1.1//EN" "http://www.w3.org/Graphics/SVG/1.1/DTD/svg11.dtd"><svg t="1563154104624" class="icon" viewBox="0 0 1024 1024" version="1.1" xmlns="http://www.w3.org/2000/svg" p-id="17961" width="200" height="200" xmlns:xlink="http://www.w3.org/1999/xlink"><defs><style type="text/css"></style></defs><path d="M747.6 851.7c9.5 16.1 4.1 37.5-12.4 46.5-16.3 9.5-37.1 3.9-46.3-12.4-10-16.1-4.2-37.1 11.9-46.5 16.8-9.5 37.3-3.7 46.8 12.4z m-201.1 72.6c0 18.5-15.3 34.1-34.6 34.1-18.5 0-34.1-15.1-34.1-34.1v-23.9c0-19 15.6-34.2 34.1-34.2 19 0 34.6 15.1 34.6 34.2v23.9z m-210.6-38.5c-9.7 16.8-30.7 22.2-46.8 12.7-16.6-9.3-22.4-30.2-12.7-46.8l25.4-44.4c9.8-16.3 30.7-21.9 47.3-12.7 16.1 9.5 22 30.7 12.2 46.8l-25.4 44.4z m-163.4-138c-16.6 9.2-37.8 3.7-46.8-12.7-9.7-16.1-4.1-37.3 12.2-46.8l68.2-39.5c16.3-9 37.6-3.9 46.8 12.6 9.3 16.1 3.6 37.3-12.7 46.8l-67.7 39.6zM99.9 546.3c-19 0-34.1-15.4-34.1-34.1 0-19 15.1-34.4 34.1-34.4h106.3c19 0 34.1 15.4 34.1 34.1 0 19-15.1 34.4-34.1 34.4H99.9zM138 335.4c-16.6-9.3-21.9-30.2-12.2-46.6 9-16.6 30.2-22.2 46.8-12.7l115.6 67c16.3 9.3 21.7 30.2 12.7 46.3-9.8 16.6-30.7 22-46.8 12.7L138 335.4z m138.4-163.3l80.5 139.7c9.7 16.3 30.7 22.2 47 12.4 16.3-9.3 21.7-30.5 12.2-46.8L335.4 138c-9.3-16.1-30.2-21.9-46.3-12.4-16.6 9.4-22 30.4-12.7 46.5z m201.4-72.2c0-18.5 15.6-34.4 34.1-34.4 19 0 34.6 15.4 34.6 34.4v160.9c0 19-15.3 34.4-34.6 34.6-18.5 0-34.1-15.1-34.1-34.6V99.9z m210.5 38c9.8-16.6 30.5-21.9 46.8-12.7 16.6 9.3 22.4 30.2 12.7 46.8l-80.7 139.7c-9 16.3-30.5 22.2-46.8 12.7-16.4-9.5-21.7-30.7-12.4-47l80.4-139.5z m163.9 138.3l-139.9 80.7c-16.3 9.3-21.9 30.2-12.6 46.8 9.7 16.1 30.7 21.5 46.8 12.4l139.9-80.7c16.1-9.3 22-30.2 12.2-46.6-9.4-16.5-30.4-22.4-46.4-12.6z m71.9 201.5c19.2 0 34.4 15.4 34.1 34.4 0 18.8-14.9 34.1-34.1 34.1H762.9c-18.5 0-34.1-15.4-34.1-34.4 0-18.8 15.6-34.1 34.1-34.1h161.2z" p-id="17962"></path></svg>