<?xml version="1.0" standalone="no"?><!DOCTYPE svg PUBLIC "-//W3C//DTD SVG 1.1//EN" "http://www.w3.org/Graphics/SVG/1.1/DTD/svg11.dtd"><svg t="1563153436668" class="icon" viewBox="0 0 1024 1024" version="1.1" xmlns="http://www.w3.org/2000/svg" p-id="3614" xmlns:xlink="http://www.w3.org/1999/xlink" width="200" height="200"><defs><style type="text/css"></style></defs><path d="M73.142 731.429C32.732 731.429 0 764.16 0 804.57s32.731 73.143 73.142 73.143c40.375 0 73.143-32.732 73.143-73.143 0.001-40.374-32.731-73.142-73.143-73.142z m256-475.429h658.285c20.187 0 36.571-16.384 36.571-36.571s-16.384-36.571-36.57-36.571H329.141c-20.187 0-36.57 16.384-36.57 36.57S308.954 256 329.141 256z m-256 182.858C32.732 438.858 0 471.626 0 512c0 40.411 32.731 73.142 73.142 73.142 40.375 0 73.143-32.768 73.143-73.142 0.001-40.374-32.731-73.142-73.143-73.142z m914.287 36.57H329.142c-20.187 0-36.57 16.385-36.57 36.572s16.383 36.571 36.57 36.571h658.285c20.187 0 36.571-16.384 36.571-36.571 0.002-20.187-16.382-36.571-36.57-36.571z m0 292.572H329.142c-20.187 0-36.57 16.384-36.57 36.571 0 20.186 16.383 36.57 36.57 36.57h658.285c20.187 0 36.571-16.384 36.571-36.57 0.002-20.187-16.382-36.571-36.57-36.571zM73.142 146.286C32.732 146.286 0 179.054 0 219.43s32.731 73.142 73.142 73.142c40.375 0 73.143-32.768 73.143-73.142s-32.731-73.143-73.143-73.143z" fill="" p-id="3615"></path></svg>