<?xml version="1.0" standalone="no"?><!DOCTYPE svg PUBLIC "-//W3C//DTD SVG 1.1//EN" "http://www.w3.org/Graphics/SVG/1.1/DTD/svg11.dtd"><svg t="1563173208551" class="icon" viewBox="0 0 1040 1024" version="1.1" xmlns="http://www.w3.org/2000/svg" p-id="2623" xmlns:xlink="http://www.w3.org/1999/xlink" width="203.125" height="200"><defs><style type="text/css"></style></defs><path d="M950.146968 272.408203 840.829214 272.408203c-40.587394 0-73.488735 32.373315-73.488735 72.309886l0 549.167504-65.164139 0 0-750.983953c0-39.870056-32.965809-72.308863-73.488735-72.308863L519.371898 70.592778c-40.522925 0-73.488735 32.437783-73.488735 72.308863l0 750.987023-65.166185 0L380.716978 446.801069c0-39.871079-32.965809-72.309886-73.488735-72.309886L197.911512 374.491183c-40.521902 0-73.488735 32.437783-73.488735 72.309886l0 447.085548L73.813123 893.886617c-3.370771 0-6.102998-2.689249-6.102998-6.004761L67.710125 97.707322c0-18.588357-15.458063-34.246989-34.344203-33.893948-18.306948 0.339738-33.041534 15.048741-33.041534 33.144888l0 790.924617c0 39.935548 32.900318 72.309886 73.487711 72.309886l914.137847 0c19.706831 0 35.681664-15.721053 35.681664-35.111682L1023.63161 344.719112C1023.633656 304.782541 990.733339 272.408203 950.146968 272.408203zM313.330218 893.88457 191.807491 893.88457 191.807491 446.801069c0-3.309372 2.735297-6.003737 6.101975-6.003737l109.318778 0c3.363607 0 6.102998 2.693342 6.102998 6.003737l0 447.083501L313.330218 893.88457zM634.791627 893.88457 513.266853 893.88457 513.266853 142.901641c0-3.309372 2.738367-6.004761 6.102998-6.004761l109.318778 0c3.363607 0 6.102998 2.695389 6.102998 6.004761L634.791627 893.88457 634.791627 893.88457zM956.24792 893.88457 834.725192 893.88457l0-549.167504c0-3.316535 2.733251-6.005784 6.104021-6.005784l109.316731 0c3.369747 0 6.101975 2.689249 6.101975 6.005784L956.24792 893.88457 956.24792 893.88457z" p-id="2624"></path></svg>